<svg width="162" height="28" fill="none" xmlns="http://www.w3.org/2000/svg"><path d="M14.04 1.36H6.68L1.44 26h23l1.44-6.76H10.24l3.8-17.88zM6.28.84h8.4l-.08.24.76.96-3.52 16.68h14.68l-.08.24.76.96-1.6 7.56H1.8l-.76-.96H.8L6.28.84zm26.68 0h23.08l-.08.24.76.96-1.6 7.64h-7.44l.04.08-1.88 8.88h6.36l-.04.24.76.96-1.64 7.64H28.44l-.76-.96h-.24l1.68-7.88h7.36l1.92-8.96h-6.12l-.76-.96h-.24L32.96.84zM31.92 8.2h22.04l1.44-6.84H33.36L31.92 8.2zm19.64 10.96h-7.32L46.4 9.08h-7.36l-2.16 10.08h-7.36L28.08 26h22.04l1.44-6.84zm27.383-7.56h-13.8l-1.36 6.28h13.8l1.36-6.28zm2.16-10.24h-22.04L53.823 26h7.36l3.8-17.84h14.68l1.44-6.8zM58.663.84h23.08l-.08.24.76.96-1.6 7.6h-14.68l-.32 1.44h13.72l-.04.24.76.96-1.52 7.08h-14.6l-.04-.08-1.76 8.2h-8.16l-.76-.96h-.24L58.663.84zm48.143.52h-22.04l-1.44 6.84h22.04l1.44-6.84zm-9 7.72h-7.36L86.846 26h7.36l3.6-16.92zM84.366.84h23.08l-.08.24.76.96-1.6 7.64h-7.44l.04.08-3.76 17.72h-8.16l-.76-.96h-.24l3.6-16.84h-6.12l-.76-.96h-.24l1.68-7.88zm45.983 10.76h-13.8l-1.36 6.28h13.8l1.36-6.28zm2.16-10.24h-22.04L105.229 26h22.04l1.44-6.76h-14.68l2.36-11.08h14.68l1.44-6.8zm-22.44-.52h23.08l-.08.24.76.96-1.6 7.6h-14.68l-.32 1.44h13.72l-.04.24.76.96-1.52 7.08h-.56l.44.56-1.6 7.56h-22.84l-.76-.96h-.24l5.48-25.68zm31.263 17.8h2.92l5.32-4.64.92-4.4h-7.24l-1.92 9.04zm-10.8 7.88h-.24l5.48-25.68h25l-.08.24.76.96-3.44 16.32-10.6 9.12h-7.92l-.04-.04v.04h-8.16l-.76-.96zm7.76-.52l3.8-17.88h9.24l-1.28 6.04-5.68 5h-3.8l-1.44 6.84h7.36l10.28-8.88 3.36-15.76h-23.96L130.932 26h7.36z" fill="#000"/></svg>