<svg fill="#344767" height="800" width="800" xmlns="http://www.w3.org/2000/svg" viewBox="0 0 512 512"><path d="M340.932 210.697l-76.88-133.163a9.298 9.298 0 00-16.104 0l-76.883 133.163a9.298 9.298 0 008.052 13.947h153.764a9.3 9.3 0 008.051-13.947zm-145.711-4.649L256 100.778l60.777 105.27H195.221zM340.934 292.005a9.298 9.298 0 00-8.052-4.649H179.117a9.3 9.3 0 00-8.052 13.947l19.799 34.293c2.569 4.448 8.256 5.972 12.701 3.403 4.447-2.567 5.97-8.254 3.403-12.701l-11.747-20.346h121.556L256 411.222l-30.656-53.097c-2.566-4.447-8.256-5.97-12.701-3.403-4.447 2.567-5.97 8.254-3.403 12.701l38.707 67.044a9.298 9.298 0 0016.104 0l76.882-133.163a9.297 9.297 0 00.001-9.299z"/><path d="M407.245 0H187.816a9.298 9.298 0 00-9.298 9.298 9.298 9.298 0 009.298 9.298h210.131v399.806c0 5.135 4.162 9.298 9.298 9.298s9.298-4.163 9.298-9.298V9.298C416.542 4.163 412.381 0 407.245 0z"/><path d="M407.245 441.337a9.298 9.298 0 00-9.298 9.298v42.77H114.053V18.596h34.092a9.298 9.298 0 009.298-9.298A9.298 9.298 0 00148.145 0h-43.39a9.298 9.298 0 00-9.298 9.298v493.404a9.298 9.298 0 009.298 9.298h302.489a9.298 9.298 0 009.298-9.298v-52.068a9.296 9.296 0 00-9.297-9.297z"/></svg>